<mxfile host="app.diagrams.net" modified="2022-07-24T13:27:54.163Z" agent="5.0 (Windows NT 6.1; Win64; x64) AppleWebKit/537.36 (KHTML, like Gecko) Chrome/97.0.4692.99 Safari/537.36" etag="3uciEZ2-1YAzh4kKDeQi" version="20.0.3" type="github">
  <diagram id="AOObUPmcGeiCL4IHX_FP" name="第 1 页">
    <mxGraphModel dx="1157" dy="600" grid="1" gridSize="10" guides="1" tooltips="1" connect="1" arrows="1" fold="1" page="1" pageScale="1" pageWidth="827" pageHeight="1169" math="0" shadow="0">
      <root>
        <mxCell id="0" />
        <mxCell id="1" parent="0" />
        <mxCell id="TAykWN6guMzEyrp9oewO-20" value="" style="endArrow=classic;html=1;rounded=0;exitX=0.383;exitY=1.1;exitDx=0;exitDy=0;exitPerimeter=0;" edge="1" parent="1" source="TAykWN6guMzEyrp9oewO-15">
          <mxGeometry width="50" height="50" relative="1" as="geometry">
            <mxPoint x="350" y="590" as="sourcePoint" />
            <mxPoint x="330" y="640" as="targetPoint" />
          </mxGeometry>
        </mxCell>
        <mxCell id="wDy4BPusMauOCpUGLh_S-1" value="请求" style="rounded=0;whiteSpace=wrap;html=1;" parent="1" vertex="1">
          <mxGeometry x="70" y="80" width="120" height="60" as="geometry" />
        </mxCell>
        <mxCell id="wDy4BPusMauOCpUGLh_S-3" value="是否命中缓存？" style="html=1;whiteSpace=wrap;aspect=fixed;shape=isoRectangle;" parent="1" vertex="1">
          <mxGeometry x="55" y="200" width="150" height="90" as="geometry" />
        </mxCell>
        <mxCell id="wDy4BPusMauOCpUGLh_S-4" value="返回结果" style="rounded=0;whiteSpace=wrap;html=1;" parent="1" vertex="1">
          <mxGeometry x="70" y="340" width="120" height="60" as="geometry" />
        </mxCell>
        <mxCell id="wDy4BPusMauOCpUGLh_S-5" value="是" style="text;html=1;strokeColor=none;fillColor=none;align=center;verticalAlign=middle;whiteSpace=wrap;rounded=0;" parent="1" vertex="1">
          <mxGeometry x="145" y="300" width="60" height="30" as="geometry" />
        </mxCell>
        <mxCell id="wDy4BPusMauOCpUGLh_S-6" value="" style="endArrow=classic;html=1;rounded=0;exitX=0.5;exitY=1;exitDx=0;exitDy=0;entryX=0.5;entryY=0.03;entryDx=0;entryDy=0;entryPerimeter=0;" parent="1" source="wDy4BPusMauOCpUGLh_S-1" target="wDy4BPusMauOCpUGLh_S-3" edge="1">
          <mxGeometry width="50" height="50" relative="1" as="geometry">
            <mxPoint x="290" y="170" as="sourcePoint" />
            <mxPoint x="340" y="120" as="targetPoint" />
          </mxGeometry>
        </mxCell>
        <mxCell id="wDy4BPusMauOCpUGLh_S-7" value="" style="endArrow=classic;html=1;rounded=0;exitX=0.487;exitY=0.985;exitDx=0;exitDy=0;exitPerimeter=0;" parent="1" source="wDy4BPusMauOCpUGLh_S-3" target="wDy4BPusMauOCpUGLh_S-4" edge="1">
          <mxGeometry width="50" height="50" relative="1" as="geometry">
            <mxPoint x="290" y="320" as="sourcePoint" />
            <mxPoint x="340" y="270" as="targetPoint" />
          </mxGeometry>
        </mxCell>
        <mxCell id="wDy4BPusMauOCpUGLh_S-8" value="查数据库，并预热到缓存" style="rounded=0;whiteSpace=wrap;html=1;" parent="1" vertex="1">
          <mxGeometry x="294" y="215" width="120" height="60" as="geometry" />
        </mxCell>
        <mxCell id="wDy4BPusMauOCpUGLh_S-9" value="" style="endArrow=classic;html=1;rounded=0;entryX=0;entryY=0.5;entryDx=0;entryDy=0;" parent="1" target="wDy4BPusMauOCpUGLh_S-8" edge="1">
          <mxGeometry width="50" height="50" relative="1" as="geometry">
            <mxPoint x="210" y="245" as="sourcePoint" />
            <mxPoint x="320" y="170" as="targetPoint" />
          </mxGeometry>
        </mxCell>
        <mxCell id="wDy4BPusMauOCpUGLh_S-10" value="否" style="text;html=1;strokeColor=none;fillColor=none;align=center;verticalAlign=middle;whiteSpace=wrap;rounded=0;" parent="1" vertex="1">
          <mxGeometry x="220" y="210" width="60" height="30" as="geometry" />
        </mxCell>
        <mxCell id="TAykWN6guMzEyrp9oewO-1" value="0" style="rounded=0;whiteSpace=wrap;html=1;" vertex="1" parent="1">
          <mxGeometry x="160" y="720" width="40" height="30" as="geometry" />
        </mxCell>
        <mxCell id="TAykWN6guMzEyrp9oewO-3" value="1" style="rounded=0;whiteSpace=wrap;html=1;" vertex="1" parent="1">
          <mxGeometry x="200" y="720" width="40" height="30" as="geometry" />
        </mxCell>
        <mxCell id="TAykWN6guMzEyrp9oewO-4" value="0" style="rounded=0;whiteSpace=wrap;html=1;" vertex="1" parent="1">
          <mxGeometry x="240" y="720" width="40" height="30" as="geometry" />
        </mxCell>
        <mxCell id="TAykWN6guMzEyrp9oewO-6" value="1" style="rounded=0;whiteSpace=wrap;html=1;" vertex="1" parent="1">
          <mxGeometry x="280" y="720" width="45" height="30" as="geometry" />
        </mxCell>
        <mxCell id="TAykWN6guMzEyrp9oewO-7" value="0" style="rounded=0;whiteSpace=wrap;html=1;" vertex="1" parent="1">
          <mxGeometry x="320" y="720" width="40" height="30" as="geometry" />
        </mxCell>
        <mxCell id="TAykWN6guMzEyrp9oewO-8" value="0" style="rounded=0;whiteSpace=wrap;html=1;" vertex="1" parent="1">
          <mxGeometry x="360" y="720" width="40" height="30" as="geometry" />
        </mxCell>
        <mxCell id="TAykWN6guMzEyrp9oewO-9" value="1" style="rounded=0;whiteSpace=wrap;html=1;" vertex="1" parent="1">
          <mxGeometry x="400" y="720" width="40" height="30" as="geometry" />
        </mxCell>
        <mxCell id="TAykWN6guMzEyrp9oewO-10" value="0" style="rounded=0;whiteSpace=wrap;html=1;" vertex="1" parent="1">
          <mxGeometry x="440" y="720" width="40" height="30" as="geometry" />
        </mxCell>
        <mxCell id="TAykWN6guMzEyrp9oewO-11" value="..." style="rounded=0;whiteSpace=wrap;html=1;" vertex="1" parent="1">
          <mxGeometry x="480" y="720" width="40" height="30" as="geometry" />
        </mxCell>
        <mxCell id="TAykWN6guMzEyrp9oewO-12" value="0" style="rounded=0;whiteSpace=wrap;html=1;" vertex="1" parent="1">
          <mxGeometry x="520" y="720" width="40" height="30" as="geometry" />
        </mxCell>
        <mxCell id="TAykWN6guMzEyrp9oewO-13" value="0" style="rounded=0;whiteSpace=wrap;html=1;" vertex="1" parent="1">
          <mxGeometry x="560" y="720" width="35" height="30" as="geometry" />
        </mxCell>
        <mxCell id="TAykWN6guMzEyrp9oewO-14" value="0" style="rounded=0;whiteSpace=wrap;html=1;" vertex="1" parent="1">
          <mxGeometry x="595" y="720" width="40" height="30" as="geometry" />
        </mxCell>
        <mxCell id="TAykWN6guMzEyrp9oewO-15" value="订单编码Code1" style="text;html=1;strokeColor=none;fillColor=none;align=center;verticalAlign=middle;whiteSpace=wrap;rounded=0;" vertex="1" parent="1">
          <mxGeometry x="325" y="550" width="60" height="30" as="geometry" />
        </mxCell>
        <mxCell id="TAykWN6guMzEyrp9oewO-16" value="hash1(code1)" style="text;html=1;strokeColor=none;fillColor=none;align=center;verticalAlign=middle;whiteSpace=wrap;rounded=0;" vertex="1" parent="1">
          <mxGeometry x="190" y="630" width="60" height="30" as="geometry" />
        </mxCell>
        <mxCell id="TAykWN6guMzEyrp9oewO-18" value="hash3(code1)" style="text;html=1;strokeColor=none;fillColor=none;align=center;verticalAlign=middle;whiteSpace=wrap;rounded=0;" vertex="1" parent="1">
          <mxGeometry x="390" y="630" width="60" height="30" as="geometry" />
        </mxCell>
        <mxCell id="TAykWN6guMzEyrp9oewO-19" value="" style="endArrow=classic;html=1;rounded=0;exitX=0.15;exitY=1.133;exitDx=0;exitDy=0;exitPerimeter=0;" edge="1" parent="1" source="TAykWN6guMzEyrp9oewO-15" target="TAykWN6guMzEyrp9oewO-16">
          <mxGeometry width="50" height="50" relative="1" as="geometry">
            <mxPoint x="460" y="620" as="sourcePoint" />
            <mxPoint x="510" y="570" as="targetPoint" />
          </mxGeometry>
        </mxCell>
        <mxCell id="TAykWN6guMzEyrp9oewO-17" value="hash2(code1)" style="text;html=1;strokeColor=none;fillColor=none;align=center;verticalAlign=middle;whiteSpace=wrap;rounded=0;" vertex="1" parent="1">
          <mxGeometry x="284" y="630" width="60" height="30" as="geometry" />
        </mxCell>
        <mxCell id="TAykWN6guMzEyrp9oewO-21" value="" style="endArrow=classic;html=1;rounded=0;exitX=0.75;exitY=1;exitDx=0;exitDy=0;" edge="1" parent="1" source="TAykWN6guMzEyrp9oewO-15" target="TAykWN6guMzEyrp9oewO-18">
          <mxGeometry width="50" height="50" relative="1" as="geometry">
            <mxPoint x="450" y="570" as="sourcePoint" />
            <mxPoint x="500" y="520" as="targetPoint" />
          </mxGeometry>
        </mxCell>
        <mxCell id="TAykWN6guMzEyrp9oewO-22" value="" style="endArrow=classic;html=1;rounded=0;exitX=0.5;exitY=1;exitDx=0;exitDy=0;" edge="1" parent="1" source="TAykWN6guMzEyrp9oewO-16" target="TAykWN6guMzEyrp9oewO-3">
          <mxGeometry width="50" height="50" relative="1" as="geometry">
            <mxPoint x="220" y="670" as="sourcePoint" />
            <mxPoint x="290" y="660" as="targetPoint" />
          </mxGeometry>
        </mxCell>
        <mxCell id="TAykWN6guMzEyrp9oewO-23" value="" style="endArrow=classic;html=1;rounded=0;exitX=0.308;exitY=1;exitDx=0;exitDy=0;entryX=0.5;entryY=0;entryDx=0;entryDy=0;exitPerimeter=0;" edge="1" parent="1" source="TAykWN6guMzEyrp9oewO-17" target="TAykWN6guMzEyrp9oewO-6">
          <mxGeometry width="50" height="50" relative="1" as="geometry">
            <mxPoint x="140" y="920" as="sourcePoint" />
            <mxPoint x="190" y="870" as="targetPoint" />
          </mxGeometry>
        </mxCell>
        <mxCell id="TAykWN6guMzEyrp9oewO-24" value="" style="endArrow=classic;html=1;rounded=0;exitX=0.5;exitY=1;exitDx=0;exitDy=0;" edge="1" parent="1" source="TAykWN6guMzEyrp9oewO-18" target="TAykWN6guMzEyrp9oewO-9">
          <mxGeometry width="50" height="50" relative="1" as="geometry">
            <mxPoint x="500" y="690" as="sourcePoint" />
            <mxPoint x="550" y="640" as="targetPoint" />
          </mxGeometry>
        </mxCell>
        <mxCell id="TAykWN6guMzEyrp9oewO-25" value="通过hash算法计算下标" style="text;html=1;strokeColor=none;fillColor=none;align=center;verticalAlign=middle;whiteSpace=wrap;rounded=0;" vertex="1" parent="1">
          <mxGeometry x="130" y="570" width="125" height="30" as="geometry" />
        </mxCell>
        <mxCell id="TAykWN6guMzEyrp9oewO-26" value="在数组对应位置为0则置为1，为1表示hash冲突，不需要改动" style="text;html=1;strokeColor=none;fillColor=none;align=center;verticalAlign=middle;whiteSpace=wrap;rounded=0;" vertex="1" parent="1">
          <mxGeometry x="40" y="670" width="170" height="30" as="geometry" />
        </mxCell>
        <mxCell id="TAykWN6guMzEyrp9oewO-27" value="查询订单编码code的数据" style="rounded=0;whiteSpace=wrap;html=1;" vertex="1" parent="1">
          <mxGeometry x="232" y="860" width="120" height="60" as="geometry" />
        </mxCell>
        <mxCell id="TAykWN6guMzEyrp9oewO-28" value="布隆过滤器" style="rounded=0;whiteSpace=wrap;html=1;" vertex="1" parent="1">
          <mxGeometry x="232" y="950" width="120" height="60" as="geometry" />
        </mxCell>
        <mxCell id="TAykWN6guMzEyrp9oewO-29" value="值1" style="ellipse;whiteSpace=wrap;html=1;" vertex="1" parent="1">
          <mxGeometry x="62" y="1100" width="110" height="60" as="geometry" />
        </mxCell>
        <mxCell id="TAykWN6guMzEyrp9oewO-30" value="值2" style="ellipse;whiteSpace=wrap;html=1;" vertex="1" parent="1">
          <mxGeometry x="186" y="1100" width="106" height="60" as="geometry" />
        </mxCell>
        <mxCell id="TAykWN6guMzEyrp9oewO-31" value="..." style="ellipse;whiteSpace=wrap;html=1;" vertex="1" parent="1">
          <mxGeometry x="302" y="1100" width="110" height="60" as="geometry" />
        </mxCell>
        <mxCell id="TAykWN6guMzEyrp9oewO-32" value="值n" style="ellipse;whiteSpace=wrap;html=1;" vertex="1" parent="1">
          <mxGeometry x="422" y="1095" width="105" height="70" as="geometry" />
        </mxCell>
        <mxCell id="TAykWN6guMzEyrp9oewO-33" value="" style="endArrow=classic;html=1;rounded=0;exitX=0.5;exitY=1;exitDx=0;exitDy=0;entryX=0.5;entryY=0;entryDx=0;entryDy=0;" edge="1" parent="1" source="TAykWN6guMzEyrp9oewO-27" target="TAykWN6guMzEyrp9oewO-28">
          <mxGeometry width="50" height="50" relative="1" as="geometry">
            <mxPoint x="422" y="1000" as="sourcePoint" />
            <mxPoint x="472" y="950" as="targetPoint" />
          </mxGeometry>
        </mxCell>
        <mxCell id="TAykWN6guMzEyrp9oewO-34" value="" style="endArrow=classic;html=1;rounded=0;exitX=0.25;exitY=1;exitDx=0;exitDy=0;entryX=0.5;entryY=0;entryDx=0;entryDy=0;" edge="1" parent="1" source="TAykWN6guMzEyrp9oewO-28" target="TAykWN6guMzEyrp9oewO-29">
          <mxGeometry width="50" height="50" relative="1" as="geometry">
            <mxPoint x="442" y="1030" as="sourcePoint" />
            <mxPoint x="492" y="980" as="targetPoint" />
          </mxGeometry>
        </mxCell>
        <mxCell id="TAykWN6guMzEyrp9oewO-35" value="" style="endArrow=classic;html=1;rounded=0;" edge="1" parent="1" target="TAykWN6guMzEyrp9oewO-30">
          <mxGeometry width="50" height="50" relative="1" as="geometry">
            <mxPoint x="302" y="1010" as="sourcePoint" />
            <mxPoint x="352" y="960" as="targetPoint" />
          </mxGeometry>
        </mxCell>
        <mxCell id="TAykWN6guMzEyrp9oewO-36" value="" style="endArrow=classic;html=1;rounded=0;exitX=0.608;exitY=1.05;exitDx=0;exitDy=0;exitPerimeter=0;entryX=0.445;entryY=-0.067;entryDx=0;entryDy=0;entryPerimeter=0;" edge="1" parent="1" source="TAykWN6guMzEyrp9oewO-28" target="TAykWN6guMzEyrp9oewO-31">
          <mxGeometry width="50" height="50" relative="1" as="geometry">
            <mxPoint x="412" y="1060" as="sourcePoint" />
            <mxPoint x="462" y="1010" as="targetPoint" />
          </mxGeometry>
        </mxCell>
        <mxCell id="TAykWN6guMzEyrp9oewO-37" value="" style="endArrow=classic;html=1;rounded=0;exitX=0.867;exitY=1.083;exitDx=0;exitDy=0;exitPerimeter=0;" edge="1" parent="1" source="TAykWN6guMzEyrp9oewO-28" target="TAykWN6guMzEyrp9oewO-32">
          <mxGeometry width="50" height="50" relative="1" as="geometry">
            <mxPoint x="462" y="1060" as="sourcePoint" />
            <mxPoint x="512" y="1010" as="targetPoint" />
          </mxGeometry>
        </mxCell>
        <mxCell id="TAykWN6guMzEyrp9oewO-38" value="n次hash取值" style="text;html=1;strokeColor=none;fillColor=none;align=center;verticalAlign=middle;whiteSpace=wrap;rounded=0;" vertex="1" parent="1">
          <mxGeometry x="82" y="1010" width="90" height="30" as="geometry" />
        </mxCell>
        <mxCell id="TAykWN6guMzEyrp9oewO-39" value="n个值是否都为1" style="rhombus;whiteSpace=wrap;html=1;" vertex="1" parent="1">
          <mxGeometry x="214.5" y="1260" width="155" height="80" as="geometry" />
        </mxCell>
        <mxCell id="TAykWN6guMzEyrp9oewO-40" value="" style="endArrow=classic;html=1;rounded=0;exitX=0.5;exitY=1;exitDx=0;exitDy=0;entryX=0.5;entryY=0;entryDx=0;entryDy=0;" edge="1" parent="1" source="TAykWN6guMzEyrp9oewO-29" target="TAykWN6guMzEyrp9oewO-39">
          <mxGeometry width="50" height="50" relative="1" as="geometry">
            <mxPoint x="112" y="1240" as="sourcePoint" />
            <mxPoint x="162" y="1190" as="targetPoint" />
          </mxGeometry>
        </mxCell>
        <mxCell id="TAykWN6guMzEyrp9oewO-41" value="" style="endArrow=classic;html=1;rounded=0;exitX=0.566;exitY=1.017;exitDx=0;exitDy=0;exitPerimeter=0;" edge="1" parent="1" source="TAykWN6guMzEyrp9oewO-30">
          <mxGeometry width="50" height="50" relative="1" as="geometry">
            <mxPoint x="372" y="1250" as="sourcePoint" />
            <mxPoint x="292" y="1260" as="targetPoint" />
          </mxGeometry>
        </mxCell>
        <mxCell id="TAykWN6guMzEyrp9oewO-42" value="" style="endArrow=classic;html=1;rounded=0;exitX=0.564;exitY=1.017;exitDx=0;exitDy=0;exitPerimeter=0;" edge="1" parent="1" source="TAykWN6guMzEyrp9oewO-31">
          <mxGeometry width="50" height="50" relative="1" as="geometry">
            <mxPoint x="452" y="1290" as="sourcePoint" />
            <mxPoint x="292" y="1260" as="targetPoint" />
          </mxGeometry>
        </mxCell>
        <mxCell id="TAykWN6guMzEyrp9oewO-43" value="" style="endArrow=classic;html=1;rounded=0;exitX=0.5;exitY=1;exitDx=0;exitDy=0;entryX=0.5;entryY=0;entryDx=0;entryDy=0;" edge="1" parent="1" source="TAykWN6guMzEyrp9oewO-32" target="TAykWN6guMzEyrp9oewO-39">
          <mxGeometry width="50" height="50" relative="1" as="geometry">
            <mxPoint x="542" y="1290" as="sourcePoint" />
            <mxPoint x="592" y="1240" as="targetPoint" />
          </mxGeometry>
        </mxCell>
        <mxCell id="TAykWN6guMzEyrp9oewO-44" value="值可能存在，存在误识别率" style="rounded=0;whiteSpace=wrap;html=1;" vertex="1" parent="1">
          <mxGeometry x="230" y="1390" width="120" height="60" as="geometry" />
        </mxCell>
        <mxCell id="TAykWN6guMzEyrp9oewO-45" value="值不存在" style="rounded=0;whiteSpace=wrap;html=1;" vertex="1" parent="1">
          <mxGeometry x="446" y="1270" width="120" height="60" as="geometry" />
        </mxCell>
        <mxCell id="TAykWN6guMzEyrp9oewO-46" value="" style="endArrow=classic;html=1;rounded=0;exitX=1;exitY=0.5;exitDx=0;exitDy=0;entryX=0;entryY=0.5;entryDx=0;entryDy=0;" edge="1" parent="1" source="TAykWN6guMzEyrp9oewO-39" target="TAykWN6guMzEyrp9oewO-45">
          <mxGeometry width="50" height="50" relative="1" as="geometry">
            <mxPoint x="422" y="1300" as="sourcePoint" />
            <mxPoint x="472" y="1250" as="targetPoint" />
          </mxGeometry>
        </mxCell>
        <mxCell id="TAykWN6guMzEyrp9oewO-47" value="" style="endArrow=classic;html=1;rounded=0;exitX=0.5;exitY=1;exitDx=0;exitDy=0;entryX=0.5;entryY=0;entryDx=0;entryDy=0;" edge="1" parent="1" source="TAykWN6guMzEyrp9oewO-39" target="TAykWN6guMzEyrp9oewO-44">
          <mxGeometry width="50" height="50" relative="1" as="geometry">
            <mxPoint x="372" y="1430" as="sourcePoint" />
            <mxPoint x="422" y="1380" as="targetPoint" />
          </mxGeometry>
        </mxCell>
      </root>
    </mxGraphModel>
  </diagram>
</mxfile>
